<svg width="243" height="36" viewBox="0 0 243 36" fill="none" xmlns="http://www.w3.org/2000/svg">
<g clip-path="url(#clip0_1_152)">
<path d="M10.424 7.09299C8.3544 7.09299 6.42668 7.70065 4.80422 8.74821V0H0V18.2192H0.0184703C0.338298 23.7311 4.87421 28.1018 10.424 28.1018C16.1809 28.1018 20.8481 23.3985 20.8481 17.5969C20.8481 11.7953 16.1809 7.09299 10.424 7.09299ZM10.424 23.26C7.32006 23.26 4.80422 20.7249 4.80422 17.5969C4.80422 14.4698 7.32006 11.9338 10.424 11.9338C13.528 11.9338 16.0439 14.4688 16.0439 17.5969C16.0429 20.7249 13.527 23.26 10.424 23.26Z" fill="#B9BCC6"/>
<path d="M34.0515 7.09296C28.2353 7.09296 23.5205 11.7963 23.5205 17.5978C23.5205 23.3994 28.2353 28.1027 34.0515 28.1027C36.1425 28.1027 38.0906 27.4951 39.7287 26.4475V28.1027H44.5825V17.5978C44.5825 11.7953 39.8677 7.09296 34.0515 7.09296ZM34.0515 23.2599C30.9164 23.2599 28.3743 20.7249 28.3743 17.5969C28.3743 14.4698 30.9164 11.9338 34.0515 11.9338C37.1866 11.9338 39.7287 14.4688 39.7287 17.5969C39.7287 20.7249 37.1866 23.2599 34.0515 23.2599Z" fill="#B9BCC6"/>
<path d="M114.762 17.7197C114.762 16.3922 113.698 15.3154 112.385 15.3154H99.2347C99.506 14.7946 100.283 13.4758 101.864 12.6955C102.882 12.1932 103.811 12.122 104.179 12.1083C104.536 12.0947 105.2 12.1035 105.992 12.3337C106.836 12.5785 107.454 12.9667 107.83 13.2447C109.085 12.1444 110.341 11.0432 111.596 9.943C110.888 9.29632 109.566 8.26241 107.638 7.64402C106.871 7.39822 105.662 7.10756 104.18 7.14072C100.669 7.2207 98.2617 9.06125 97.7532 9.46604C97.5958 9.59186 95.4143 11.3671 94.3887 14.0835C94.1418 14.737 93.6324 16.0869 93.7899 17.8163C93.7909 17.8251 93.7919 17.8329 93.7928 17.8417C93.7967 17.9099 93.8035 17.9753 93.8142 18.0387C93.8191 18.0787 93.8239 18.1157 93.8278 18.146C93.8298 18.146 93.8327 18.146 93.8346 18.146C93.9017 18.4474 94.0281 18.6737 94.0757 18.7575C94.6959 19.8451 95.9976 19.969 96.1531 19.9807C96.5916 20.0129 97.03 20.046 97.4684 20.0782C101.397 20.0899 105.324 20.1016 109.252 20.1133C108.954 20.6712 108.179 21.9178 106.658 22.6679C105.64 23.1702 104.711 23.2414 104.343 23.255C104.137 23.2628 103.41 23.2784 102.53 23.0297C100.842 22.5518 99.7704 21.4311 99.297 20.8605C98.0711 21.948 96.8462 23.0356 95.6204 24.1241C96.3456 25.0029 98.0575 26.823 100.885 27.7203C102.421 28.208 103.705 28.2383 104.343 28.2236C107.855 28.1437 110.261 26.3031 110.77 25.8983C110.927 25.7725 113.109 23.9973 114.134 21.2809C114.364 20.6722 114.822 19.4579 114.757 17.8943C114.759 17.8368 114.762 17.7792 114.762 17.7197Z" fill="#B9BCC6"/>
<path d="M91.8175 17.6222C91.8175 17.554 91.8136 17.4867 91.8087 17.4203C91.8855 15.8344 91.4267 14.6005 91.1972 13.986C90.1853 11.2696 88.033 9.49436 87.8774 9.36853C87.3758 8.96375 85.0009 7.1232 81.5373 7.04322C79.8954 7.00518 78.6394 7.37582 78.1251 7.54652C76.5843 8.05859 75.4576 8.8545 74.7324 9.48168C74.3903 9.76259 72.4013 11.4754 71.4379 14.0231C71.1929 14.6707 70.6874 16.008 70.844 17.7227C70.8449 17.7354 70.8459 17.7471 70.8478 17.7598C70.8488 17.7763 70.8498 17.7929 70.8508 17.8095C70.7876 19.3672 71.2435 20.5776 71.4729 21.1843C72.4985 23.9008 74.6799 25.676 74.8374 25.8018C75.3458 26.2066 77.7528 28.0471 81.2641 28.1271C81.9038 28.1417 83.186 28.1115 84.7219 27.6238C87.5489 26.7265 89.2608 24.9064 89.9869 24.0276C88.7611 22.94 87.5362 21.8525 86.3104 20.7639C85.837 21.3345 84.7647 22.4553 83.0771 22.9332C82.1973 23.1819 81.4702 23.1663 81.2641 23.1585C80.8967 23.1449 79.9673 23.0736 78.9495 22.5713C77.4009 21.8076 76.6252 20.5289 76.3393 19.9866C80.7061 19.9992 85.0739 20.0129 89.4406 20.0256C90.753 20.0265 91.8175 18.9507 91.8175 17.6222ZM76.2596 15.2179C76.5396 14.6863 77.3086 13.4086 78.8542 12.6468C79.8633 12.1494 80.7858 12.0791 81.1504 12.0645C81.5042 12.0508 82.1624 12.0596 82.9488 12.2879C83.5923 12.4742 84.1037 12.7453 84.475 12.9853C85.6007 13.7597 86.1889 14.7751 86.4154 15.2169H76.2596V15.2179Z" fill="#B9BCC6"/>
<path d="M68.2016 24.3377V7.10855H63.3556V18.2786C63.1398 21.1453 60.7027 23.4062 57.7251 23.4062C54.2313 23.4062 52.2268 20.0304 52.0771 17.8661C52.0702 17.7627 52.0673 17.672 52.0673 17.5978V7.10855H47.2485V17.9138H47.2495C47.2758 23.5672 51.9555 28.1427 57.7251 28.1427C59.6051 28.1427 61.3686 27.657 62.8938 26.8064C62.7655 27.1068 62.3475 28.0003 61.5941 28.725C60.2467 30.0213 58.4872 30.1442 55.7517 30.2954C54.7795 30.349 53.3914 30.3705 51.7125 30.1978C51.7183 31.8648 51.7242 33.5327 51.73 35.1996C52.5641 35.2074 53.7938 35.2074 55.2831 35.1684C58.2976 35.0894 59.8307 35.0406 61.1139 34.6075C61.5017 34.4768 63.445 33.7931 65.1754 32.0013C67.9634 29.1132 68.189 25.4272 68.2162 24.366L68.2016 24.3377Z" fill="#B9BCC6"/>
<path d="M186.833 7.28806C181.017 7.28806 176.302 11.9914 176.302 17.7929C176.302 23.5945 181.017 28.2978 186.833 28.2978C188.924 28.2978 190.872 27.6901 192.51 26.6426V28.2978H197.364V17.7929C197.364 11.9904 192.649 7.28806 186.833 7.28806ZM186.833 23.455C183.698 23.455 181.156 20.92 181.156 17.792C181.156 14.6649 183.698 12.1289 186.833 12.1289C189.968 12.1289 192.51 14.6639 192.51 17.792C192.51 20.92 189.969 23.455 186.833 23.455ZM242.814 17.7227V28.2773H237.99V17.3716C237.904 15.4774 236.67 14.1148 236.408 13.8378C236.064 13.4739 234.608 12.0313 232.32 12.0265C230.396 12.0226 228.788 13.0379 227.875 14.2367C226.85 15.5827 226.689 17.1823 226.663 17.4555C226.654 17.5676 226.648 17.6603 226.645 17.7237V28.2773H221.82V0.296509H226.645V8.88378C227.926 8.04691 229.861 7.15931 232.328 7.16126C236.367 7.16418 238.974 9.54997 239.625 10.1859C240.085 10.6365 242.378 12.9638 242.762 16.5015C242.816 17.0029 242.821 17.4252 242.814 17.7227ZM163.139 7.24612C157.382 7.24612 152.715 11.9494 152.715 17.751C152.715 23.5526 157.382 28.2559 163.139 28.2559C168.896 28.2559 173.563 23.5526 173.563 17.751C173.563 11.9494 168.896 7.24612 163.139 7.24612ZM163.139 23.4131C160.035 23.4131 157.519 20.8781 157.519 17.75C157.519 14.622 160.035 12.0869 163.139 12.0869C166.243 12.0869 168.759 14.622 168.759 17.75C168.759 20.8781 166.243 23.4131 163.139 23.4131ZM149.758 23.9037C149.295 24.5406 147.186 27.2961 143.283 28.0501C138.781 28.9201 135.457 26.4378 134.965 26.0574C130.98 22.9751 130.898 18.2718 130.898 17.7315C130.898 17.0819 130.969 12.8526 134.491 9.79674C134.872 9.46609 138.269 6.61992 143.01 7.40315C146.551 7.98838 148.662 10.2386 149.262 10.9272C148.165 12.1338 147.066 13.3403 145.969 14.5469C145.682 14.1333 144.642 12.7424 142.725 12.2469C140.801 11.7495 138.725 12.3435 137.338 13.7392C135.738 15.3496 135.703 17.3725 135.703 17.7325C135.703 18.1372 135.746 19.9895 137.178 21.556C137.319 21.7111 139.255 23.7564 142.126 23.338C144.368 23.0112 145.61 21.4097 145.858 21.0771C147.158 22.0183 148.458 22.9605 149.758 23.9037ZM218.786 23.9037C218.324 24.5406 216.214 27.2961 212.311 28.0501C207.809 28.9201 204.485 26.4378 203.994 26.0574C200.008 22.9751 199.926 18.2718 199.926 17.7315C199.926 17.0819 199.997 12.8526 203.519 9.79674C203.9 9.46609 207.297 6.61992 212.038 7.40315C215.579 7.98838 217.691 10.2386 218.291 10.9272C217.193 12.1338 216.095 13.3403 214.997 14.5469C214.71 14.1333 213.67 12.7424 211.753 12.2469C209.829 11.7495 207.754 12.3435 206.367 13.7392C204.766 15.3496 204.731 17.3725 204.731 17.7325C204.731 18.1372 204.774 19.9895 206.206 21.556C206.347 21.7111 208.284 23.7564 211.154 23.338C213.396 23.0112 214.638 21.4097 214.886 21.0771C216.186 22.0183 217.486 22.9605 218.786 23.9037Z" fill="url(#paint0_linear_1_152)"/>
</g>
<defs>
<linearGradient id="paint0_linear_1_152" x1="130.899" y1="14.2963" x2="242.817" y2="14.2963" gradientUnits="userSpaceOnUse">
<stop stop-color="#F2594B"/>
<stop offset="1" stop-color="#E8845D"/>
</linearGradient>
<clipPath id="clip0_1_152">
<rect width="242.814" height="35.2035" fill="white"/>
</clipPath>
</defs>
</svg>
