<svg width="23" height="18" viewBox="0 0 23 18" fill="none" xmlns="http://www.w3.org/2000/svg">
<path d="M22.627 8.09489H20.1064C19.8398 3.56272 16.0832 0 11.5025 0C10.0241 0 8.56996 0.387779 7.30968 1.09063L6.84919 1.35723C6.6553 1.47841 6.58259 1.72077 6.70378 1.91466L7.43086 3.02953C7.55204 3.19918 7.77017 3.27189 7.96406 3.15071L8.35184 2.93258C9.32129 2.39938 10.4119 2.10855 11.5025 2.10855C14.9198 2.10855 17.707 4.72606 17.9736 8.07066H15.5258C15.2107 8.07066 15.0168 8.40996 15.1864 8.67656L18.7249 14.1297C18.8704 14.3721 19.2339 14.3721 19.3793 14.1297L22.9178 8.67656C23.1117 8.4342 22.942 8.09489 22.627 8.09489Z" fill="#050C42"/>
<path d="M15.5741 14.2266C15.4529 14.0569 15.2348 13.9842 15.0409 14.1054L14.6531 14.3235C13.6594 14.8567 12.6172 15.1476 11.5024 15.1476C8.08507 15.1476 5.29791 12.5058 5.00707 9.18547H7.45493C7.77 9.18547 7.96389 8.84616 7.79424 8.57956L4.25575 3.10218C4.11033 2.85982 3.74679 2.85982 3.60137 3.10218L0.0628854 8.55533C-0.106768 8.82193 0.0871216 9.16123 0.402192 9.16123H2.89852C3.16512 13.6692 6.92173 17.2561 11.5024 17.2561C12.9565 17.2561 14.4107 16.8683 15.6952 16.1655L16.1557 15.8989C16.3496 15.7777 16.4223 15.5354 16.3011 15.3415L15.5741 14.2266Z" fill="#050C42"/>
</svg>
