<svg width="34" height="43" viewBox="0 0 34 43" fill="none" xmlns="http://www.w3.org/2000/svg">
<path d="M32.5327 8.01418L26.7986 1.4252C26.0184 0.534792 24.9262 0.000549316 23.8339 0.000549316H3.00362C1.32627 0.000549316 0 1.55876 0 3.4286V38.8667C0 40.7811 1.36528 42.2947 3.00362 42.2947H30.7774C32.4547 42.2947 33.781 40.7365 33.781 38.8667V11.3977C33.781 10.1066 33.3519 8.90459 32.5327 8.01418ZM31.3625 38.8667C31.3625 39.2228 31.0895 39.5345 30.7774 39.5345H3.00362C2.69156 39.5345 2.4185 39.2228 2.4185 38.8667V3.4286C2.4185 3.07244 2.69156 2.7608 3.00362 2.7608H23.7949C24.263 2.7608 24.7311 2.9834 25.0822 3.38408L30.8554 9.97307C31.2065 10.3738 31.4015 10.908 31.4015 11.4422V38.8667H31.3625Z" fill="white"/>
<path d="M20.1243 26.2228L18.0985 28.1143V19.7845C18.0985 19.1661 17.5531 18.6569 16.8909 18.6569C16.2286 18.6569 15.6832 19.1661 15.6832 19.7845V28.1143L13.6575 26.2228C13.19 25.7863 12.4109 25.7863 11.9434 26.2228C11.4759 26.6593 11.4759 27.3868 11.9434 27.8233L16.0338 31.6427C16.2676 31.8609 16.5792 31.97 16.8909 31.97C17.2025 31.97 17.5142 31.8609 17.7479 31.6427L21.8384 27.8233C22.3058 27.3868 22.3058 26.6593 21.8384 26.2228C21.3709 25.7863 20.5917 25.7863 20.1243 26.2228Z" fill="white"/>
<path d="M23.7471 14.3091H10.0855C9.42195 14.3091 8.87549 14.8163 8.87549 15.4321V19.5257C8.87549 20.1415 9.42195 20.6487 10.0855 20.6487C10.7491 20.6487 11.2955 20.1415 11.2955 19.5257V16.5551H22.5761V19.5257C22.5761 20.1415 23.1226 20.6487 23.7862 20.6487C24.4497 20.6487 24.9962 20.1415 24.9962 19.5257V15.3959C24.9572 14.78 24.4107 14.3091 23.7471 14.3091Z" fill="white"/>
</svg>
