<svg width="18" height="17" viewBox="0 0 18 17" fill="none" xmlns="http://www.w3.org/2000/svg">
<path d="M13.2768 15.9001L13.2767 15.9001L13.2799 15.9018C13.3272 15.9262 13.3701 15.9422 13.417 15.9503C13.4581 15.9573 13.4977 15.9573 13.5311 15.9573L13.5362 15.9573L13.5407 15.9573C13.6169 15.9573 13.742 15.9574 13.8584 15.8446C14.0083 15.7343 14.1075 15.5267 14.0583 15.3125L13.2095 10.2769L16.7459 6.69724C16.9163 6.57044 16.9515 6.34682 16.9063 6.16C16.8512 5.93207 16.6796 5.82562 16.4981 5.77872L16.4902 5.77668L16.4822 5.77551L11.5002 5.05066L9.32268 0.472139L9.32225 0.471254C9.27635 0.376344 9.21427 0.295522 9.13174 0.238645C9.04803 0.180949 8.95207 0.154016 8.84979 0.154016C8.61783 0.154016 8.46627 0.331274 8.38631 0.455271L8.38106 0.463403L8.37691 0.47214L6.19928 5.05085L1.29208 5.77556L1.28418 5.77672L1.27646 5.77872C1.07708 5.83025 0.924665 5.98371 0.871297 6.14922C0.81396 6.32705 0.874646 6.53818 1.01872 6.68713L1.01872 6.68713L1.01982 6.68826L4.56505 10.2769L3.7163 15.3125C3.66575 15.5324 3.77166 15.7453 3.92826 15.8533L3.93608 15.8587L3.94451 15.863C4.09369 15.9401 4.31544 16.0208 4.50379 15.8968L8.88728 13.4978L13.2768 15.9001ZM9.14664 12.4199L9.14666 12.4199L9.14362 12.4183C9.09628 12.3939 9.05343 12.3779 9.00648 12.3699C8.96547 12.3628 8.92584 12.3628 8.89243 12.3628L8.88728 12.3628C8.85661 12.3628 8.82844 12.3701 8.81367 12.3741C8.8026 12.377 8.7887 12.3813 8.77733 12.3847C8.77273 12.3861 8.76855 12.3873 8.76513 12.3884C8.73373 12.3976 8.71408 12.4016 8.69983 12.4016H8.66153L8.62793 12.4199L4.92345 14.4431L5.62358 10.1729L5.62555 10.1608V10.1486C5.62555 10.0759 5.61406 9.99365 5.5912 9.91685C5.56902 9.84231 5.53187 9.75851 5.47089 9.69547L5.4709 9.69547L5.46964 9.6942L2.49121 6.68759L6.61226 6.07382C6.80641 6.06972 6.97656 5.96566 7.03942 5.78681L8.88728 1.93018L10.7391 5.79497L10.7496 5.81694L10.7665 5.83445L10.769 5.83705C10.8053 5.87453 10.859 5.93009 10.9201 5.97602C10.9776 6.01921 11.0616 6.06963 11.1614 6.07369L15.2834 6.68759L12.3049 9.6942L12.3049 9.69419L12.3037 9.69547C12.2511 9.74985 12.2028 9.82593 12.1725 9.90734C12.1441 9.98374 12.1247 10.0836 12.1525 10.1824L12.8511 14.4431L9.14664 12.4199Z" fill="#050C42" stroke="#050C42" stroke-width="0.3"/>
</svg>
